<svg width="131" height="30" viewBox="0 0 131 30" fill="none" xmlns="http://www.w3.org/2000/svg">
<g clip-path="url(#clip0_40000203_34099)">
<path d="M12.5635 5.00331C12.5792 5.00331 12.5949 5.0068 12.6106 5.00854C12.6351 5.01029 12.6595 5.01378 12.6839 5.01727C12.7014 5.02076 12.7171 5.02425 12.7345 5.02774C12.7642 5.03472 12.7939 5.03996 12.8235 5.04868C12.855 5.06264 12.8811 5.07311 12.9038 5.08359C12.9108 5.08708 12.916 5.08882 12.923 5.09231C12.9457 5.10104 12.9649 5.10977 12.9824 5.11849C12.9841 5.11849 12.9858 5.11849 12.9876 5.12024C13.0033 5.12722 13.0155 5.13245 13.0277 5.13769C13.0295 5.13769 13.033 5.13943 13.0347 5.14118C13.0452 5.14642 13.0557 5.14991 13.0626 5.15514C13.0626 5.15514 13.0661 5.15514 13.0679 5.15689C13.0749 5.16038 13.0818 5.16387 13.0871 5.16736L10.1481 3.59489C10.1481 3.59489 10.1359 3.58965 10.1289 3.58442C10.1289 3.58442 10.1289 3.58442 10.1271 3.58442C10.1271 3.58442 10.1271 3.58442 10.1254 3.58442C10.1167 3.58093 10.1079 3.57569 10.0957 3.57046C10.094 3.57046 10.0922 3.56871 10.0887 3.56697C10.0765 3.56173 10.0643 3.55649 10.0468 3.54951C10.0468 3.54951 10.0434 3.54951 10.0416 3.54777C10.0242 3.54079 10.005 3.53206 9.98227 3.52159C9.97703 3.51984 9.97005 3.51635 9.96482 3.51461C9.94038 3.50414 9.91421 3.49366 9.88279 3.4797C9.86883 3.47621 9.85487 3.47098 9.83916 3.46749C9.82345 3.464 9.80775 3.46225 9.79204 3.45876C9.77459 3.45527 9.75888 3.45178 9.74143 3.44829C9.71699 3.4448 9.69256 3.44131 9.66813 3.43956C9.65242 3.43956 9.63671 3.43607 9.621 3.43433C9.59308 3.43433 9.5669 3.43433 9.53898 3.43433C9.52502 3.43433 9.5128 3.43433 9.49884 3.43433C9.4587 3.43607 9.41681 3.43956 9.37492 3.44654C9.34002 3.45178 9.30511 3.45876 9.26846 3.46749C9.25799 3.46923 9.24578 3.47272 9.2353 3.47621C9.20913 3.48319 9.1812 3.49192 9.15328 3.50239C9.14106 3.50588 9.12884 3.51112 9.11663 3.51635C9.08347 3.52857 9.04682 3.54428 9.01017 3.56173C9.00319 3.56522 8.99795 3.56697 8.99097 3.57046C8.99097 3.57046 8.98748 3.57046 8.98573 3.5722C8.93861 3.59489 8.88974 3.62107 8.83739 3.65074C8.81644 3.6647 8.7955 3.67866 8.77281 3.69262C8.76758 3.69611 8.7606 3.70135 8.75536 3.70659C8.74663 3.71357 8.73616 3.72055 8.72744 3.72753C8.70649 3.74324 8.68555 3.76069 8.66461 3.77814C8.65588 3.78512 8.64716 3.79385 8.63668 3.80083C8.63145 3.80432 8.62796 3.80781 8.62447 3.8113C8.60701 3.82701 8.58956 3.84446 8.57211 3.86191C8.56164 3.87238 8.55117 3.88286 8.54069 3.89333C8.50754 3.92823 8.47263 3.96488 8.43598 4.00677C8.40806 4.03993 8.38362 4.07483 8.35919 4.10974C8.35046 4.12195 8.34348 4.13592 8.3365 4.14813C8.31905 4.17606 8.3016 4.20398 8.28589 4.23191C8.27542 4.24936 8.2632 4.26681 8.25447 4.28426C8.23877 4.31219 8.2248 4.34011 8.21259 4.36978L1.03787 19.3667C1.01169 19.4208 0.990747 19.4749 0.969804 19.529C0.969804 19.5325 0.968059 19.536 0.966314 19.5395C0.959333 19.5587 0.954097 19.5779 0.948861 19.5971C0.936645 19.6372 0.924428 19.6756 0.915702 19.7158C0.910466 19.7384 0.906975 19.7611 0.90174 19.7856C0.894759 19.8222 0.887778 19.8589 0.884287 19.8955C0.880797 19.9199 0.879051 19.9444 0.877306 19.9688C0.873816 20.0037 0.87207 20.0386 0.87207 20.0735C0.87207 20.098 0.87207 20.1224 0.87207 20.1468C0.87207 20.1817 0.875561 20.2166 0.879051 20.2498C0.880797 20.2742 0.884287 20.2969 0.887778 20.3196C0.893013 20.3545 0.899994 20.3877 0.908721 20.4226C0.913956 20.4435 0.917447 20.4662 0.924428 20.4872C0.934899 20.5238 0.947116 20.5587 0.961078 20.5936C0.968059 20.6111 0.973295 20.6285 0.980276 20.646C1.00296 20.6983 1.0274 20.7472 1.05532 20.7961C1.11117 20.8886 1.17574 20.9706 1.25079 21.0421C1.32584 21.1137 1.40786 21.173 1.49687 21.2202L4.43587 22.7891C4.25785 22.6949 4.10427 22.55 3.99432 22.365C3.9664 22.3179 3.94022 22.2673 3.91928 22.215C3.91229 22.1975 3.90706 22.18 3.90008 22.1626C3.88612 22.1277 3.8739 22.091 3.86343 22.0544C3.85819 22.0334 3.85296 22.0108 3.84772 21.9898C3.84074 21.9567 3.83201 21.9217 3.82678 21.8868C3.82329 21.8642 3.82154 21.8397 3.81805 21.8153C3.81456 21.7804 3.81107 21.7472 3.81107 21.7123C3.81107 21.6879 3.81107 21.6635 3.81107 21.639C3.81107 21.6041 3.81282 21.5692 3.81631 21.5343C3.81805 21.5099 3.8198 21.4854 3.82329 21.461C3.82852 21.4244 3.83376 21.3877 3.84074 21.3511C3.84597 21.3284 3.84947 21.3057 3.8547 21.2812C3.86343 21.2411 3.87564 21.201 3.88786 21.1626C3.8931 21.1434 3.89833 21.1242 3.90531 21.105C3.92626 21.0474 3.94894 20.988 3.97687 20.9322L11.1533 5.94225C11.176 5.89513 11.2022 5.84975 11.2284 5.80437C11.2441 5.77645 11.2615 5.74853 11.279 5.7206C11.3104 5.67174 11.3436 5.62287 11.3802 5.57749C11.4169 5.53561 11.4518 5.49721 11.4849 5.46405C11.4954 5.45183 11.5059 5.44311 11.5163 5.43264C11.539 5.40995 11.56 5.38901 11.5809 5.36981C11.5896 5.36108 11.5984 5.3541 11.6088 5.34712C11.6298 5.32967 11.6507 5.31221 11.6717 5.29651C11.6804 5.28953 11.6909 5.28254 11.6996 5.27556C11.7275 5.25637 11.7537 5.23717 11.7816 5.21972C11.8375 5.1883 11.8881 5.16212 11.9352 5.13943C11.9422 5.13594 11.9474 5.1342 11.9544 5.13071C11.9911 5.11326 12.026 5.09929 12.0609 5.08533C12.0731 5.0801 12.0853 5.07661 12.0975 5.07137C12.1254 5.0609 12.1534 5.05217 12.1795 5.04519C12.19 5.0417 12.2022 5.03821 12.2127 5.03646C12.2494 5.02774 12.2843 5.02076 12.3192 5.01552C12.361 5.01029 12.4012 5.00505 12.4431 5.00331C12.457 5.00331 12.4693 5.00331 12.4832 5.00331C12.5111 5.00331 12.5373 5.00331 12.5652 5.00331H12.5635Z" fill="#FFDC06"/>
<path d="M29.3387 22.613C29.5726 23.0231 29.5726 23.5729 29.3387 24.0458C29.1031 24.5223 28.665 24.8609 28.1921 24.9307L13.6419 27.0948C13.169 27.1646 12.7274 26.9569 12.4866 26.552C12.2457 26.1489 12.2387 25.5991 12.4674 25.1209L19.6421 10.1292C19.7014 10.0001 19.7765 9.87791 19.8672 9.76447C20.0226 9.58646 20.1412 9.48523 20.2686 9.40495C20.4938 9.27755 20.6508 9.22519 20.8062 9.2025C20.9772 9.17632 21.1482 9.18679 21.3123 9.23392C21.5514 9.33514 21.5741 9.3491 21.5968 9.36306C21.8271 9.54632 21.9144 9.65627 21.9825 9.77843L29.3387 22.6113V22.613ZM15.902 23.8783L25.8918 22.3914L20.8358 13.5691L15.902 23.8766" fill="#FFDC06"/>
<path d="M19.4169 14.665L18.5356 16.686L20.0836 19.3894L17.1691 19.8223L16.2354 21.9672L23.0244 20.9567L19.4169 14.665Z" fill="#FFDC06"/>
<path d="M9.61758 25.1191C9.58965 25.072 9.56347 25.0214 9.54253 24.969C9.53555 24.9516 9.53031 24.9341 9.52333 24.9167C9.50937 24.8818 9.49715 24.8451 9.48668 24.8085C9.48145 24.7875 9.47621 24.7648 9.47097 24.7439C9.46399 24.709 9.45527 24.6758 9.45003 24.6409C9.44654 24.6182 9.4448 24.5938 9.44131 24.5711C9.43781 24.5362 9.43432 24.503 9.43432 24.4681C9.43432 24.4437 9.43432 24.4193 9.43432 24.3948C9.43432 24.3599 9.43607 24.325 9.43956 24.2901C9.44131 24.2657 9.44305 24.2413 9.44654 24.2168C9.45178 24.1802 9.45701 24.1435 9.46399 24.1069C9.46923 24.0842 9.47272 24.0615 9.47796 24.0371C9.48668 23.9969 9.4989 23.9568 9.51112 23.9184C9.51635 23.8992 9.52159 23.88 9.52857 23.8608C9.54951 23.8032 9.5722 23.7439 9.60012 23.688L16.7731 8.69633C16.794 8.64921 16.822 8.60383 16.8481 8.55845C16.8639 8.53053 16.8813 8.5026 16.8988 8.47468C16.9302 8.42581 16.9633 8.37695 17 8.33157C17.0366 8.28968 17.0715 8.25129 17.1047 8.21813C17.1152 8.20766 17.1256 8.19719 17.1361 8.18671C17.1588 8.16403 17.1797 8.14308 17.2007 8.12389C17.2094 8.11516 17.2181 8.10818 17.2286 8.1012C17.2496 8.08374 17.2705 8.06629 17.2914 8.05059C17.3002 8.0436 17.3106 8.03662 17.3194 8.02964C17.3473 8.01044 17.3735 7.99125 17.4014 7.97379C17.4555 7.94238 17.5061 7.9162 17.555 7.89351C17.562 7.89002 17.5689 7.88828 17.5742 7.88479C17.6108 7.86733 17.6457 7.85337 17.6806 7.83941C17.6928 7.83417 17.7051 7.83068 17.7173 7.82545C17.7452 7.81498 17.7731 7.80625 17.7993 7.79927C17.8098 7.79578 17.822 7.79229 17.8325 7.79054C17.8691 7.78182 17.904 7.77484 17.9389 7.7696C17.9808 7.76436 18.021 7.75913 18.0611 7.75738C18.0751 7.75738 18.0873 7.75738 18.1012 7.75738C18.1292 7.75738 18.1553 7.75738 18.1833 7.75738C18.199 7.75738 18.2147 7.76087 18.2304 7.76262C18.2548 7.76436 18.2792 7.76785 18.3037 7.77135C18.3211 7.77484 18.3368 7.77833 18.3543 7.78182C18.384 7.7888 18.4136 7.79403 18.4433 7.80276C18.4747 7.81672 18.5009 7.82719 18.5253 7.83766C18.5306 7.83941 18.5375 7.8429 18.5428 7.84465C18.5655 7.85512 18.5847 7.8621 18.6021 7.87082C18.6039 7.87082 18.6056 7.87257 18.6074 7.87431C18.6231 7.8813 18.6353 7.88653 18.6475 7.89177C18.6492 7.89177 18.6527 7.89351 18.6545 7.89526C18.6649 7.90049 18.6754 7.90398 18.6824 7.90922C18.6824 7.90922 18.6859 7.90922 18.6876 7.91097C18.6946 7.91446 18.7016 7.91795 18.7068 7.92144L15.7678 6.35246C15.7678 6.35246 15.7556 6.34722 15.7486 6.34199C15.7486 6.34199 15.7486 6.34199 15.7469 6.34199C15.7469 6.34199 15.7469 6.34199 15.7451 6.34199C15.7382 6.3385 15.7277 6.33326 15.7172 6.32802C15.7155 6.32802 15.712 6.32628 15.7102 6.32453C15.698 6.3193 15.6858 6.31406 15.6701 6.30708C15.6701 6.30708 15.6666 6.30708 15.6649 6.30534C15.6474 6.29835 15.6282 6.28963 15.6055 6.27916C15.6003 6.27741 15.5933 6.27392 15.5881 6.27218C15.5636 6.2617 15.5375 6.25123 15.506 6.23727C15.4921 6.23378 15.4781 6.22854 15.4624 6.22505C15.4467 6.22156 15.431 6.21982 15.4153 6.21633C15.3978 6.21284 15.3821 6.20935 15.3647 6.20586C15.3402 6.20237 15.3158 6.19888 15.2914 6.19713C15.2757 6.19713 15.26 6.19364 15.2443 6.19189C15.2163 6.19189 15.1902 6.19189 15.1622 6.19189C15.1483 6.19189 15.1361 6.19189 15.1221 6.19189C15.082 6.19364 15.0401 6.19713 14.9999 6.20411C14.965 6.20935 14.9301 6.21633 14.8935 6.22505C14.883 6.2268 14.8708 6.23029 14.8603 6.23378C14.8341 6.24076 14.8062 6.24949 14.7783 6.25996C14.7661 6.26345 14.7538 6.26869 14.7416 6.27392C14.7085 6.28614 14.6718 6.30185 14.6352 6.3193C14.6282 6.32279 14.6229 6.32453 14.616 6.32802C14.616 6.32802 14.6125 6.32802 14.6107 6.32977C14.5636 6.35246 14.5147 6.37864 14.4624 6.40831C14.4414 6.42227 14.4188 6.43623 14.3978 6.45019C14.3926 6.45368 14.3856 6.45892 14.3804 6.46415C14.3716 6.47113 14.3612 6.47812 14.3524 6.4851C14.3315 6.5008 14.3106 6.51826 14.2896 6.53571C14.2809 6.54269 14.2722 6.55142 14.2617 6.5584C14.2564 6.56189 14.253 6.56538 14.2495 6.56887C14.232 6.58458 14.2146 6.60203 14.1971 6.61948C14.1866 6.62995 14.1762 6.64042 14.1657 6.6509C14.1325 6.6858 14.0976 6.72245 14.061 6.76434C14.0331 6.7975 14.0086 6.8324 13.9842 6.86731C13.9755 6.87952 13.9685 6.89348 13.9615 6.9057C13.944 6.93363 13.9266 6.96155 13.9109 6.98947C13.9004 7.00693 13.8882 7.02438 13.8795 7.04183C13.8638 7.06975 13.8498 7.09768 13.8376 7.12735L6.66287 22.119C6.63669 22.1731 6.61575 22.2272 6.5948 22.2813C6.5948 22.2848 6.59306 22.2883 6.59131 22.2918C6.58433 22.311 6.5791 22.3302 6.57386 22.3494C6.56164 22.3896 6.54943 22.4279 6.5407 22.4681C6.53547 22.4908 6.53197 22.5135 6.52674 22.5379C6.51976 22.5745 6.51278 22.6112 6.50929 22.6478C6.5058 22.6723 6.50405 22.6967 6.50231 22.7212C6.49882 22.7561 6.49707 22.791 6.49707 22.8259C6.49707 22.8503 6.49707 22.8747 6.49707 22.8992C6.49707 22.9341 6.50056 22.969 6.50405 23.0021C6.5058 23.0266 6.50929 23.0493 6.51278 23.0737C6.51801 23.1086 6.52499 23.1418 6.53372 23.1767C6.53896 23.1976 6.54245 23.2203 6.54943 23.2412C6.5599 23.2779 6.57212 23.3128 6.58608 23.3494C6.59306 23.3669 6.59829 23.3843 6.60528 23.4018C6.62796 23.4542 6.6524 23.503 6.68032 23.5519C6.73617 23.6444 6.80074 23.7264 6.87579 23.798C6.94909 23.8695 7.03286 23.9289 7.12187 23.976L10.0609 25.545C9.88285 25.449 9.72927 25.3059 9.61932 25.1209L9.61758 25.1191Z" fill="#FFDC06"/>
<path d="M46.6995 12.1011V21.8725C46.6995 22.2031 46.5155 22.3847 46.1873 22.3847H44.4271C44.0965 22.3847 43.9149 22.2008 43.9149 21.8725V21.1112C43.1443 22.089 41.9872 22.678 40.411 22.678C37.5287 22.678 35.147 20.2008 35.147 16.9879C35.147 13.775 37.5287 11.2979 40.411 11.2979C41.9895 11.2979 43.1443 11.8869 43.9149 12.8647V12.1034C43.9149 11.7728 44.0989 11.5912 44.4271 11.5912H46.1873C46.5155 11.5912 46.6995 11.7751 46.6995 12.1034V12.1011ZM43.9126 16.9879C43.9126 15.1743 42.6391 13.9427 40.9209 13.9427C39.2027 13.9427 37.9292 15.1743 37.9292 16.9879C37.9292 18.8016 39.2027 20.0332 40.9209 20.0332C42.6391 20.0332 43.9126 18.8016 43.9126 16.9879Z" fill="white"/>
<path d="M62.7661 15.1091V21.8748C62.7661 22.2054 62.5821 22.387 62.2539 22.387H60.4937C60.1655 22.387 59.9815 22.2031 59.9815 21.8748V15.3209C59.9815 14.2476 59.3436 13.8798 58.6056 13.8798C57.8675 13.8798 57.0084 14.2965 57.0084 15.7051V21.8771C57.0084 22.2077 56.8245 22.3893 56.4962 22.3893H54.7361C54.4079 22.3893 54.2239 22.2054 54.2239 21.8771V15.3233C54.2239 14.25 53.586 13.8821 52.848 13.8821C52.1099 13.8821 51.2508 14.2989 51.2508 15.7074V21.8795C51.2508 22.2101 51.0669 22.3917 50.7386 22.3917H48.9785C48.6502 22.3917 48.4663 22.2077 48.4663 21.8795V12.108C48.4663 11.7774 48.6502 11.5958 48.9785 11.5958H50.7386C51.0692 11.5958 51.2508 11.7798 51.2508 12.108V12.6482C51.8352 11.7728 52.7502 11.3025 53.8374 11.3025C54.9247 11.3025 55.8886 11.7891 56.445 12.7273C57.1761 11.8007 58.1469 11.3025 59.4088 11.3025C61.4506 11.3025 62.773 12.6296 62.773 15.1137L62.7661 15.1091Z" fill="white"/>
<path d="M76.0369 16.9881C76.0369 20.201 73.6551 22.6782 70.7728 22.6782C69.1943 22.6782 68.0395 22.0891 67.2689 21.1113V26.1914C67.2689 26.522 67.085 26.7036 66.7567 26.7036H64.9966C64.6683 26.7036 64.4844 26.5197 64.4844 26.1914V12.1012C64.4844 11.7706 64.6683 11.589 64.9966 11.589H66.7567C67.0873 11.589 67.2689 11.7729 67.2689 12.1012V12.8625C68.0395 11.8847 69.1966 11.2957 70.7728 11.2957C73.6551 11.2957 76.0369 13.7728 76.0369 16.9858V16.9881ZM73.25 16.9881C73.25 15.1744 71.9765 13.9428 70.2583 13.9428C68.5401 13.9428 67.2666 15.1744 67.2666 16.9881C67.2666 18.8017 68.5401 20.0334 70.2583 20.0334C71.9765 20.0334 73.25 18.8017 73.25 16.9881Z" fill="white"/>
<path d="M77.229 21.8726V7.34936C77.229 7.02108 77.4129 6.83716 77.7412 6.83716H79.5013C79.8319 6.83716 80.0135 7.02108 80.0135 7.34936V21.8726C80.0135 22.2032 79.8296 22.3848 79.5013 22.3848H77.7412C77.4129 22.3848 77.229 22.2009 77.229 21.8726Z" fill="white"/>
<path d="M82.0229 9.56329V7.78222C82.0229 7.45162 82.2069 7.27002 82.5352 7.27002H84.2953C84.6259 7.27002 84.8075 7.45395 84.8075 7.78222V9.56329C84.8075 9.89389 84.6235 10.0755 84.2953 10.0755H82.5352C82.2069 10.0755 82.0229 9.89156 82.0229 9.56329ZM82.0229 21.8724V12.101C82.0229 11.7704 82.2069 11.5888 82.5352 11.5888H84.2953C84.6259 11.5888 84.8075 11.7727 84.8075 12.101V21.8724C84.8075 22.203 84.6235 22.3846 84.2953 22.3846H82.5352C82.2069 22.3846 82.0229 22.2007 82.0229 21.8724Z" fill="white"/>
<path d="M96.1784 12.101V21.8724C96.1784 22.203 95.9945 22.3846 95.6662 22.3846H93.9061C93.5755 22.3846 93.3939 22.2007 93.3939 21.8724V14.2662H90.2182V21.8724C90.2182 22.203 90.0343 22.3846 89.706 22.3846H87.9459C87.6177 22.3846 87.4337 22.2007 87.4337 21.8724V14.2662H86.4023C86.0717 14.2662 85.8901 14.0823 85.8901 13.754V12.101C85.8901 11.7704 86.0741 11.5888 86.4023 11.5888H87.4337V11.4817C87.4337 8.51328 89.0867 6.979 92.5045 6.979C93.1913 6.979 93.8758 7.04419 94.5929 7.18388C94.9002 7.23278 95.0469 7.433 95.0469 7.74032V9.2909C95.0469 9.61917 94.842 9.81008 94.5068 9.76585C93.799 9.696 93.1192 9.65875 92.5045 9.65875C91.0727 9.65875 90.2206 10.0266 90.2206 11.4841V11.5911H95.6685C95.9991 11.5911 96.1807 11.7751 96.1807 12.1033L96.1784 12.101Z" fill="white"/>
<path d="M108.552 19.0228C107.861 21.188 105.782 22.678 103.316 22.678C100.038 22.678 97.605 20.2008 97.605 16.9879C97.605 13.775 100.04 11.2979 103.316 11.2979C105.784 11.2979 107.856 12.7879 108.552 14.9531C108.683 15.3047 108.478 15.5305 108.126 15.5305H106.187C105.917 15.5305 105.728 15.4071 105.572 15.1743C105.118 14.4619 104.287 14.0405 103.316 14.0405C101.663 14.0405 100.389 15.2721 100.389 16.9879C100.389 18.7038 101.663 19.9354 103.316 19.9354C104.294 19.9354 105.125 19.5094 105.572 18.8179C105.728 18.5688 105.903 18.4454 106.187 18.4454H108.126C108.478 18.4454 108.683 18.6712 108.552 19.0228Z" fill="white"/>
<path d="M120.841 12.1011V21.8725C120.841 22.2031 120.657 22.3847 120.328 22.3847H118.568C118.238 22.3847 118.056 22.2008 118.056 21.8725V21.1112C117.285 22.089 116.128 22.678 114.552 22.678C111.67 22.678 109.288 20.2008 109.288 16.9879C109.288 13.775 111.67 11.2979 114.552 11.2979C116.131 11.2979 117.285 11.8869 118.056 12.8647V12.1034C118.056 11.7728 118.24 11.5912 118.568 11.5912H120.328C120.657 11.5912 120.841 11.7751 120.841 12.1034V12.1011ZM118.056 16.9879C118.056 15.1743 116.783 13.9427 115.064 13.9427C113.346 13.9427 112.073 15.1743 112.073 16.9879C112.073 18.8016 113.346 20.0332 115.064 20.0332C116.783 20.0332 118.056 18.8016 118.056 16.9879Z" fill="white"/>
<path d="M123.971 12.4064C123.743 12.4064 123.529 12.3645 123.329 12.2783C123.129 12.1922 122.954 12.0734 122.803 11.9221C122.651 11.7708 122.533 11.5938 122.446 11.3959C122.36 11.1957 122.318 10.9815 122.318 10.7534C122.318 10.5252 122.36 10.311 122.446 10.1108C122.533 9.91055 122.651 9.73594 122.803 9.58461C122.954 9.43327 123.131 9.31454 123.329 9.22839C123.529 9.14225 123.743 9.10034 123.971 9.10034C124.2 9.10034 124.414 9.14225 124.614 9.22839C124.814 9.31454 124.989 9.43327 125.14 9.58461C125.291 9.73594 125.41 9.91288 125.496 10.1108C125.582 10.311 125.624 10.5252 125.624 10.7534C125.624 10.9815 125.582 11.1957 125.496 11.3959C125.41 11.5962 125.291 11.7708 125.14 11.9221C124.989 12.0734 124.812 12.1922 124.614 12.2783C124.414 12.3645 124.2 12.4064 123.971 12.4064ZM123.971 11.9826C124.197 11.9826 124.404 11.9268 124.588 11.8173C124.775 11.7079 124.924 11.5589 125.033 11.3727C125.142 11.1864 125.198 10.9792 125.198 10.7534C125.198 10.5275 125.142 10.3203 125.033 10.1341C124.924 9.9478 124.775 9.7988 124.588 9.68937C124.402 9.57995 124.197 9.52407 123.971 9.52407C123.746 9.52407 123.538 9.57995 123.352 9.68937C123.166 9.7988 123.017 9.9478 122.907 10.1341C122.798 10.3203 122.742 10.5275 122.742 10.7534C122.742 10.9792 122.798 11.1864 122.907 11.3703C123.019 11.5566 123.166 11.7056 123.352 11.815C123.538 11.9268 123.746 11.9803 123.971 11.9803V11.9826ZM123.38 11.496V9.97109H124.134C124.221 9.97109 124.302 9.98971 124.379 10.027C124.456 10.0642 124.521 10.1201 124.57 10.1946C124.619 10.2691 124.644 10.3599 124.644 10.4693C124.644 10.5787 124.619 10.6719 124.567 10.7464C124.516 10.8232 124.451 10.8814 124.369 10.921C124.288 10.9606 124.204 10.9815 124.116 10.9815H123.59V10.7068H124.025C124.078 10.7068 124.127 10.6858 124.174 10.6463C124.22 10.6067 124.241 10.5461 124.241 10.4693C124.241 10.3855 124.218 10.3296 124.174 10.2947C124.13 10.2598 124.081 10.2458 124.032 10.2458H123.757V11.4937H123.38V11.496ZM124.337 10.7883L124.695 11.4984H124.281L123.941 10.7883H124.337Z" fill="white"/>
</g>
<defs>
<clipPath id="clip0_40000203_34099">
<rect width="130.312" height="30" fill="white"/>
</clipPath>
</defs>
</svg>
