<svg width="29" height="24" viewBox="0 0 29 24" fill="none" xmlns="http://www.w3.org/2000/svg">
<path d="M11.6914 1.56898C11.7071 1.56898 11.7228 1.57247 11.7385 1.57421C11.763 1.57596 11.7874 1.57945 11.8118 1.58294C11.8293 1.58643 11.845 1.58992 11.8625 1.59341C11.8921 1.60039 11.9218 1.60563 11.9515 1.61436C11.9829 1.62832 12.0091 1.63879 12.0317 1.64926C12.0387 1.65275 12.044 1.6545 12.0509 1.65799C12.0736 1.66671 12.0928 1.67544 12.1103 1.68417C12.112 1.68417 12.1138 1.68417 12.1155 1.68591C12.1312 1.69289 12.1434 1.69813 12.1557 1.70336C12.1574 1.70336 12.1609 1.70511 12.1626 1.70685C12.1731 1.71209 12.1836 1.71558 12.1906 1.72082C12.1906 1.72082 12.1941 1.72082 12.1958 1.72256C12.2028 1.72605 12.2098 1.72954 12.215 1.73303L9.276 0.160563C9.276 0.160563 9.26378 0.155327 9.2568 0.150091C9.2568 0.150091 9.2568 0.150091 9.25506 0.150091C9.25506 0.150091 9.25506 0.150091 9.25331 0.150091C9.24458 0.146601 9.23586 0.141365 9.22364 0.136129C9.2219 0.136129 9.22015 0.134384 9.21666 0.132639C9.20444 0.127403 9.19223 0.122167 9.17477 0.115186C9.17477 0.115186 9.17128 0.115186 9.16954 0.113441C9.15209 0.10646 9.13289 0.0977339 9.1102 0.0872625C9.10496 0.0855172 9.09798 0.0820267 9.09275 0.0802815C9.06831 0.06981 9.04214 0.0593385 9.01072 0.0453765C8.99676 0.041886 8.9828 0.0366502 8.96709 0.0331597C8.95138 0.0296692 8.93568 0.027924 8.91997 0.0244335C8.90252 0.020943 8.88681 0.0174525 8.86936 0.013962C8.84492 0.0104715 8.82049 0.006981 8.79606 0.00523575C8.78035 0.00523575 8.76464 0.00174525 8.74893 0C8.72101 0 8.69483 0 8.66691 0C8.65295 0 8.64073 0 8.62677 0C8.58663 0.00174525 8.54474 0.00523575 8.50285 0.0122167C8.46795 0.0174525 8.43304 0.0244335 8.39639 0.0331597C8.38592 0.034905 8.37371 0.0383955 8.36323 0.041886C8.33706 0.048867 8.30913 0.0575932 8.28121 0.0680647C8.26899 0.0715552 8.25677 0.076791 8.24456 0.0820267C8.2114 0.0942434 8.17475 0.109951 8.1381 0.127403C8.13112 0.130894 8.12588 0.132639 8.1189 0.136129C8.1189 0.136129 8.11541 0.136129 8.11366 0.137875C8.06654 0.160563 8.01767 0.186742 7.96532 0.216411C7.94437 0.230373 7.92343 0.244335 7.90074 0.258297C7.89551 0.261787 7.88853 0.267023 7.88329 0.272259C7.87456 0.27924 7.86409 0.286221 7.85537 0.293202C7.83442 0.308909 7.81348 0.326362 7.79254 0.343814C7.78381 0.350795 7.77508 0.359521 7.76461 0.366502C7.75938 0.369993 7.75589 0.373483 7.7524 0.376974C7.73494 0.392681 7.71749 0.410134 7.70004 0.427586C7.68957 0.438058 7.6791 0.448529 7.66862 0.459001C7.63546 0.493905 7.60056 0.530556 7.56391 0.572442C7.53599 0.605601 7.51155 0.640506 7.48712 0.675411C7.47839 0.687628 7.47141 0.70159 7.46443 0.713807C7.44698 0.741731 7.42953 0.769655 7.41382 0.797579C7.40335 0.815031 7.39113 0.832484 7.3824 0.849936C7.3667 0.87786 7.35273 0.905784 7.34052 0.935454L0.165799 15.9324C0.13962 15.9865 0.118677 16.0406 0.097734 16.0947C0.097734 16.0982 0.0959887 16.1017 0.0942434 16.1052C0.0872625 16.1244 0.0820267 16.1436 0.076791 16.1628C0.0645742 16.2029 0.0523575 16.2413 0.0436312 16.2814C0.0383955 16.3041 0.034905 16.3268 0.0296692 16.3512C0.0226882 16.3879 0.0157072 16.4245 0.0122167 16.4612C0.00872625 16.4856 0.006981 16.5101 0.00523575 16.5345C0.00174525 16.5694 0 16.6043 0 16.6392C0 16.6636 0 16.6881 0 16.7125C0 16.7474 0.0034905 16.7823 0.006981 16.8155C0.00872625 16.8399 0.0122167 16.8626 0.0157072 16.8853C0.020943 16.9202 0.027924 16.9533 0.0366502 16.9883C0.041886 17.0092 0.0453765 17.0319 0.0523575 17.0528C0.062829 17.0895 0.0750457 17.1244 0.0890077 17.1593C0.0959887 17.1767 0.101224 17.1942 0.108205 17.2116C0.130894 17.264 0.155327 17.3129 0.183251 17.3617C0.239099 17.4542 0.303673 17.5363 0.378719 17.6078C0.453765 17.6794 0.535791 17.7387 0.624799 17.7858L3.5638 19.3548C3.38578 19.2606 3.2322 19.1157 3.12225 18.9307C3.09433 18.8836 3.06815 18.833 3.04721 18.7806C3.04022 18.7632 3.03499 18.7457 3.02801 18.7283C3.01405 18.6934 3.00183 18.6567 2.99136 18.6201C2.98612 18.5991 2.98089 18.5764 2.97565 18.5555C2.96867 18.5223 2.95994 18.4874 2.95471 18.4525C2.95122 18.4298 2.94947 18.4054 2.94598 18.381C2.94249 18.3461 2.939 18.3129 2.939 18.278C2.939 18.2536 2.939 18.2291 2.939 18.2047C2.939 18.1698 2.94075 18.1349 2.94424 18.1C2.94598 18.0755 2.94773 18.0511 2.95122 18.0267C2.95645 17.99 2.96169 17.9534 2.96867 17.9167C2.9739 17.894 2.9774 17.8714 2.98263 17.8469C2.99136 17.8068 3.00357 17.7666 3.01579 17.7282C3.02103 17.709 3.02626 17.6898 3.03324 17.6706C3.05419 17.6131 3.07687 17.5537 3.1048 17.4979L10.2813 2.50792C10.304 2.4608 10.3301 2.41542 10.3563 2.37005C10.372 2.34212 10.3895 2.3142 10.4069 2.28628C10.4383 2.23741 10.4715 2.18854 10.5081 2.14317C10.5448 2.10128 10.5797 2.06288 10.6129 2.02972C10.6233 2.01751 10.6338 2.00878 10.6443 1.99831C10.667 1.97562 10.6879 1.95468 10.7088 1.93548C10.7176 1.92675 10.7263 1.91977 10.7368 1.91279C10.7577 1.89534 10.7787 1.87789 10.7996 1.86218C10.8083 1.8552 10.8188 1.84822 10.8275 1.84124C10.8554 1.82204 10.8816 1.80284 10.9096 1.78539C10.9654 1.75398 11.016 1.7278 11.0631 1.70511C11.0701 1.70162 11.0754 1.69987 11.0823 1.69638C11.119 1.67893 11.1539 1.66497 11.1888 1.65101C11.201 1.64577 11.2132 1.64228 11.2254 1.63704C11.2534 1.62657 11.2813 1.61785 11.3075 1.61086C11.3179 1.60737 11.3302 1.60388 11.3406 1.60214C11.3773 1.59341 11.4122 1.58643 11.4471 1.5812C11.489 1.57596 11.5291 1.57072 11.571 1.56898C11.585 1.56898 11.5972 1.56898 11.6111 1.56898C11.6391 1.56898 11.6652 1.56898 11.6932 1.56898H11.6914Z" fill="white"/>
<path d="M28.4666 19.1787C28.7005 19.5888 28.7005 20.1386 28.4666 20.6115C28.231 21.088 27.793 21.4266 27.32 21.4964L12.7699 23.6605C12.2969 23.7303 11.8553 23.5226 11.6145 23.1177C11.3737 22.7145 11.3667 22.1648 11.5953 21.6866L18.77 6.6949C18.8294 6.56575 18.9044 6.44359 18.9952 6.33015C19.1505 6.15213 19.2692 6.05091 19.3966 5.97062C19.6217 5.84322 19.7788 5.79086 19.9341 5.76817C20.1051 5.742 20.2762 5.75247 20.4402 5.79959C20.6793 5.90081 20.702 5.91478 20.7247 5.92874C20.9551 6.11199 21.0423 6.22194 21.1104 6.34411L28.4666 19.1769V19.1787ZM15.03 20.444L25.0198 18.957L19.9638 10.1348L15.03 20.4422" fill="white"/>
<path d="M18.5449 11.2307L17.6635 13.2517L19.2116 15.9551L16.297 16.3879L15.3633 18.5328L22.1523 17.5223L18.5449 11.2307Z" fill="white"/>
<path d="M8.74551 21.6848C8.71758 21.6377 8.6914 21.5871 8.67046 21.5347C8.66348 21.5173 8.65824 21.4998 8.65126 21.4823C8.6373 21.4474 8.62508 21.4108 8.61461 21.3741C8.60938 21.3532 8.60414 21.3305 8.5989 21.3096C8.59192 21.2747 8.5832 21.2415 8.57796 21.2066C8.57447 21.1839 8.57273 21.1595 8.56924 21.1368C8.56574 21.1019 8.56225 21.0687 8.56225 21.0338C8.56225 21.0094 8.56225 20.985 8.56225 20.9605C8.56225 20.9256 8.564 20.8907 8.56749 20.8558C8.56924 20.8314 8.57098 20.8069 8.57447 20.7825C8.57971 20.7459 8.58494 20.7092 8.59192 20.6726C8.59716 20.6499 8.60065 20.6272 8.60589 20.6027C8.61461 20.5626 8.62683 20.5225 8.63905 20.4841C8.64428 20.4649 8.64952 20.4457 8.6565 20.4265C8.67744 20.3689 8.70013 20.3095 8.72805 20.2537L15.901 5.262C15.922 5.21488 15.9499 5.1695 15.9761 5.12413C15.9918 5.0962 16.0092 5.06828 16.0267 5.04035C16.0581 4.99149 16.0913 4.94262 16.1279 4.89724C16.1646 4.85536 16.1995 4.81696 16.2326 4.7838C16.2431 4.77333 16.2536 4.76286 16.264 4.75239C16.2867 4.7297 16.3077 4.70876 16.3286 4.68956C16.3373 4.68083 16.3461 4.67385 16.3565 4.66687C16.3775 4.64942 16.3984 4.63197 16.4194 4.61626C16.4281 4.60928 16.4386 4.6023 16.4473 4.59532C16.4752 4.57612 16.5014 4.55692 16.5293 4.53947C16.5834 4.50805 16.634 4.48187 16.6829 4.45919C16.6899 4.4557 16.6969 4.45395 16.7021 4.45046C16.7387 4.43301 16.7737 4.41905 16.8086 4.40508C16.8208 4.39985 16.833 4.39636 16.8452 4.39112C16.8731 4.38065 16.9011 4.37192 16.9272 4.36494C16.9377 4.36145 16.9499 4.35796 16.9604 4.35622C16.997 4.34749 17.0319 4.34051 17.0669 4.33527C17.1087 4.33004 17.1489 4.3248 17.189 4.32306C17.203 4.32306 17.2152 4.32306 17.2292 4.32306C17.2571 4.32306 17.2833 4.32306 17.3112 4.32306C17.3269 4.32306 17.3426 4.32655 17.3583 4.32829C17.3827 4.33004 17.4072 4.33353 17.4316 4.33702C17.4491 4.34051 17.4648 4.344 17.4822 4.34749C17.5119 4.35447 17.5416 4.35971 17.5712 4.36843C17.6026 4.3824 17.6288 4.39287 17.6533 4.40334C17.6585 4.40508 17.6655 4.40857 17.6707 4.41032C17.6934 4.42079 17.7126 4.42777 17.73 4.4365C17.7318 4.4365 17.7335 4.43824 17.7353 4.43999C17.751 4.44697 17.7632 4.45221 17.7754 4.45744C17.7772 4.45744 17.7807 4.45919 17.7824 4.46093C17.7929 4.46617 17.8033 4.46966 17.8103 4.47489C17.8103 4.47489 17.8138 4.47489 17.8156 4.47664C17.8225 4.48013 17.8295 4.48362 17.8348 4.48711L14.8958 2.91813C14.8958 2.91813 14.8835 2.9129 14.8766 2.90766C14.8766 2.90766 14.8766 2.90766 14.8748 2.90766C14.8748 2.90766 14.8748 2.90766 14.8731 2.90766C14.8661 2.90417 14.8556 2.89893 14.8452 2.8937C14.8434 2.8937 14.8399 2.89195 14.8382 2.89021C14.826 2.88497 14.8137 2.87974 14.798 2.87275C14.798 2.87275 14.7945 2.87275 14.7928 2.87101C14.7753 2.86403 14.7561 2.8553 14.7335 2.84483C14.7282 2.84309 14.7212 2.8396 14.716 2.83785C14.6916 2.82738 14.6654 2.81691 14.634 2.80294C14.62 2.79945 14.6061 2.79422 14.5903 2.79073C14.5746 2.78724 14.5589 2.78549 14.5432 2.782C14.5258 2.77851 14.5101 2.77502 14.4926 2.77153C14.4682 2.76804 14.4437 2.76455 14.4193 2.7628C14.4036 2.7628 14.3879 2.75931 14.3722 2.75757C14.3443 2.75757 14.3181 2.75757 14.2902 2.75757C14.2762 2.75757 14.264 2.75757 14.25 2.75757C14.2099 2.75931 14.168 2.7628 14.1279 2.76979C14.0929 2.77502 14.058 2.782 14.0214 2.79073C14.0109 2.79247 13.9987 2.79596 13.9882 2.79945C13.9621 2.80644 13.9341 2.81516 13.9062 2.82563C13.894 2.82912 13.8818 2.83436 13.8696 2.8396C13.8364 2.85181 13.7997 2.86752 13.7631 2.88497C13.7561 2.88846 13.7509 2.89021 13.7439 2.8937C13.7439 2.8937 13.7404 2.8937 13.7387 2.89544C13.6915 2.91813 13.6427 2.94431 13.5903 2.97398C13.5694 2.98794 13.5467 3.0019 13.5257 3.01587C13.5205 3.01936 13.5135 3.02459 13.5083 3.02983C13.4996 3.03681 13.4891 3.04379 13.4804 3.05077C13.4594 3.06648 13.4385 3.08393 13.4175 3.10138C13.4088 3.10836 13.4001 3.11709 13.3896 3.12407C13.3844 3.12756 13.3809 3.13105 13.3774 3.13454C13.3599 3.15025 13.3425 3.1677 13.325 3.18515C13.3146 3.19563 13.3041 3.2061 13.2936 3.21657C13.2605 3.25147 13.2256 3.28812 13.1889 3.33001C13.161 3.36317 13.1366 3.39807 13.1121 3.43298C13.1034 3.4452 13.0964 3.45916 13.0894 3.47138C13.072 3.4993 13.0545 3.52722 13.0388 3.55515C13.0283 3.5726 13.0161 3.59005 13.0074 3.6075C12.9917 3.63543 12.9777 3.66335 12.9655 3.69302L5.7908 18.6847C5.76462 18.7388 5.74368 18.7929 5.72273 18.847C5.72273 18.8505 5.72099 18.854 5.71924 18.8575C5.71226 18.8767 5.70703 18.8959 5.70179 18.9151C5.68957 18.9552 5.67736 18.9936 5.66863 19.0338C5.6634 19.0565 5.6599 19.0791 5.65467 19.1036C5.64769 19.1402 5.64071 19.1769 5.63722 19.2135C5.63373 19.238 5.63198 19.2624 5.63024 19.2868C5.62675 19.3217 5.625 19.3566 5.625 19.3915C5.625 19.416 5.625 19.4404 5.625 19.4648C5.625 19.4997 5.62849 19.5347 5.63198 19.5678C5.63373 19.5922 5.63722 19.6149 5.64071 19.6394C5.64594 19.6743 5.65292 19.7074 5.66165 19.7423C5.66689 19.7633 5.67038 19.786 5.67736 19.8069C5.68783 19.8436 5.70005 19.8785 5.71401 19.9151C5.72099 19.9326 5.72622 19.95 5.73321 19.9675C5.75589 20.0198 5.78033 20.0687 5.80825 20.1176C5.8641 20.2101 5.92867 20.2921 6.00372 20.3636C6.07702 20.4352 6.16079 20.4945 6.2498 20.5417L9.1888 22.1106C9.01078 22.0146 8.8572 21.8715 8.74725 21.6865L8.74551 21.6848Z" fill="white"/>
</svg>
